<?xml version="1.0" encoding="UTF-8" standalone="no"?>
<!-- Created with Inkscape (http://www.inkscape.org/) -->

<svg
   width="864"
   height="864"
   viewBox="0 0 228.59999 228.6"
   version="1.1"
   id="svg5"
   xml:space="preserve"
   inkscape:version="1.2.1 (9c6d41e4, 2022-07-14)"
   sodipodi:docname="iopunchLogo.svg"
   xmlns:inkscape="http://www.inkscape.org/namespaces/inkscape"
   xmlns:sodipodi="http://sodipodi.sourceforge.net/DTD/sodipodi-0.dtd"
   xmlns="http://www.w3.org/2000/svg"
   xmlns:svg="http://www.w3.org/2000/svg"><sodipodi:namedview
     id="namedview7"
     pagecolor="#ffffff"
     bordercolor="#000000"
     borderopacity="0.25"
     inkscape:showpageshadow="2"
     inkscape:pageopacity="0.0"
     inkscape:pagecheckerboard="0"
     inkscape:deskcolor="#d1d1d1"
     inkscape:document-units="px"
     showgrid="false"
     inkscape:zoom="1.0021335"
     inkscape:cx="428.58563"
     inkscape:cy="419.10586"
     inkscape:window-width="1920"
     inkscape:window-height="1080"
     inkscape:window-x="0"
     inkscape:window-y="0"
     inkscape:window-maximized="0"
     inkscape:current-layer="layer6" /><defs
     id="defs2"><inkscape:perspective
       sodipodi:type="inkscape:persp3d"
       inkscape:vp_x="0 : 114.3 : 1"
       inkscape:vp_y="0 : 1000 : 0"
       inkscape:vp_z="228.59999 : 114.3 : 1"
       inkscape:persp3d-origin="114.29999 : 76.2 : 1"
       id="perspective1962" /><rect
       x="212.15082"
       y="210.61349"
       width="367.42062"
       height="84.552862"
       id="rect980" /><clipPath
       clipPathUnits="userSpaceOnUse"
       id="clipPath6348"><rect
         style="fill:#ff8080;stroke:none;stroke-width:0"
         id="rect6350"
         width="233.54422"
         height="238.14609"
         x="-3.4513924"
         y="-2.3009284" /></clipPath><clipPath
       clipPathUnits="userSpaceOnUse"
       id="clipPath6352"><rect
         style="fill:#ff8080;stroke:none;stroke-width:0"
         id="rect6354"
         width="233.54422"
         height="238.14609"
         x="-3.4513924"
         y="-2.3009284" /></clipPath><clipPath
       clipPathUnits="userSpaceOnUse"
       id="clipPath6356"><rect
         style="fill:#ff8080;stroke:none;stroke-width:0"
         id="rect6358"
         width="233.54422"
         height="238.14609"
         x="-3.4513924"
         y="-2.3009284" /></clipPath></defs><g
     inkscape:groupmode="layer"
     id="layer5"
     inkscape:label="Layer 5" /><g
     inkscape:groupmode="layer"
     id="layer6"
     inkscape:label="Layer 6" /><g
     inkscape:groupmode="layer"
     id="layer2"
     inkscape:label="Layer 2"><circle
       id="path6616"
       style="fill:#2b0000;stroke:#000000;stroke-width:0.264583;opacity:1"
       cx="131.72815"
       cy="215.99965"
       r="0" /><path
       style="opacity:1;fill:#24221c;stroke:none;stroke-width:0"
       d="m 89.214274,185.53088 70.042096,-3.50896 -6.67885,-26.90194 1.19877,-15.03836 7.87759,-11.5294 4.79507,-24.72975 c 0,0 1.37002,-23.058805 -3.25379,-24.061361 -4.62381,-1.002555 -8.73385,-15.70673 -8.73385,-15.70673 0,0 -16.07543,-7.754205 -18.83773,0.668373 -1.37002,4.177319 -9.76136,-13.701616 -17.29646,-7.352087 -7.5351,6.349528 -5.65131,2.172207 -5.65131,2.172207 0,0 -14.556414,-14.202892 -22.77652,-11.6965 -8.220106,2.506394 -17.810219,-4.678599 -17.810219,-4.678599 0,0 -8.04885,-4.845692 -14.04267,5.681157 -5.993819,10.52685 2.911286,63.49528 2.911286,63.49528 l 3.082534,4.67861 c 0,0 -12.33015,10.86103 -4.281301,17.87892 8.048851,7.01791 24.660293,14.20289 24.831549,19.71695 0.171248,5.51408 5.822563,12.0307 6.165066,15.70673 0.342504,3.67605 -1.541261,15.20546 -1.541261,15.20546 z"
       id="path6565-9"
       sodipodi:nodetypes="ccccccscsscscsccsssc" /></g><g
     inkscape:groupmode="layer"
     id="layer3"
     inkscape:label="Layer 3"><circle
       id="path1099"
       style="fill:#280b0b;stroke:#280b0b;stroke-width:0.264583;stroke-linecap:round"
       cx="205.23628"
       cy="104.95674"
       r="0" /><path
       style="opacity:0.693333;fill:#ffaaaa;stroke:none;stroke-width:0"
       d="m 91.277717,182.03252 64.770773,-3.30971 -6.1762,-25.37434 1.10855,-14.18444 7.28474,-10.87473 4.43417,-23.3255 c 0,0 1.26691,-21.749449 -3.00892,-22.695079 -4.27582,-0.945627 -8.07654,-14.814843 -8.07654,-14.814843 0,0 -14.8656,-7.313895 -17.42001,0.630419 -1.2669,3.940117 -9.02673,-12.923589 -15.99474,-6.93461 -6.96801,5.988981 -5.22599,2.048862 -5.22599,2.048862 0,0 -13.460914,-13.396403 -21.062375,-11.032331 -7.601462,2.364072 -16.469835,-4.412933 -16.469835,-4.412933 0,0 -7.443098,-4.570537 -12.985828,5.358561 -5.542732,9.929098 2.692183,59.889794 2.692183,59.889794 l 2.850547,4.41294 c 0,0 -11.402189,10.2443 -3.959094,16.8637 7.443098,6.6194 22.804381,13.39641 22.962748,18.59736 0.158358,5.20096 5.384363,11.34755 5.701087,14.81484 0.316725,3.46731 -1.425266,14.34204 -1.425266,14.34204 z"
       id="path6565"
       sodipodi:nodetypes="ccccccscsscscsccsssc" /><path
       style="fill:#000000;stroke:none;stroke-width:0"
       d="m 68.358391,119.01757 4.777704,-1.46682 6.768418,0.63159 h 3.185138 l 3.78235,1.05267 1.990709,2.73696 1.592577,3.15802 0.597206,2.10535 0.398143,2.10534 -0.597207,1.89484 -0.796293,1.68426 -2.986058,2.31588 -4.379567,1.68428 -4.379567,-0.6316 -4.777704,-1.8948 -3.185139,-1.68428 -1.194428,-1.47374 -1.592567,-1.89484 -0.398144,-1.68427 -0.398139,-1.68428 0.398139,-3.36856 z"
       id="path7329-8"
       sodipodi:nodetypes="cccccccccccccccccccccc" /></g><g
     inkscape:groupmode="layer"
     id="layer4"
     inkscape:label="Layer 4"
     style="fill:#ffffff"><path
       style="opacity:1;fill:#ffffff;stroke:none;stroke-width:0"
       d="m 70.438739,120.70937 3.755462,-1.0812 5.320241,0.46554 h 2.503643 l 2.973074,0.77595 1.564775,2.01743 1.251827,2.32782 0.469429,1.55188 0.312955,1.55187 -0.469429,1.3967 -0.625918,1.2415 -2.347157,1.70706 -3.442511,1.2415 -3.44251,-0.46556 -3.755462,-1.39669 -2.503643,-1.2415 -0.938867,-1.08631 -1.251819,-1.3967 -0.312957,-1.2415 -0.312954,-1.2415 0.312954,-2.483 z"
       id="path7329"
       sodipodi:nodetypes="cccccccccccccccccccccc" /><circle
       id="path1381"
       style="fill:#2b0000;stroke:#2b0000;stroke-width:0.00132292;stroke-dasharray:none;opacity:1"
       cx="17.425323"
       cy="164.22047"
       r="0.056267541" /><ellipse
       id="path1483"
       style="opacity:1;fill:#2b0000;stroke:#2b0000;stroke-width:0.744859"
       cx="192.22868"
       cy="167.73708"
       rx="0.00049773557"
       ry="0.00049231295" /><ellipse
       id="path1536"
       style="opacity:1;fill:#000000;stroke:#2b0000;stroke-width:0.0203841;stroke-dasharray:none"
       cx="156.09753"
       cy="182.33006"
       rx="0.00013528889"
       ry="0.00013564812" /><path
       style="opacity:1;fill:#000000;stroke:#2b0000;stroke-width:0.0203841;stroke-linecap:square;stroke-linejoin:bevel;stroke-dasharray:none;stroke-opacity:0.989637"
       id="path1538"
       d="m 70.783046,138.21416 c 1.469741,0.12333 2.941019,0.22321 4.41129,0.34166 1.538867,0.13698 3.074361,0.31094 4.616056,0.41407 1.007596,0.0861 2.013765,0.0119 3.019504,-0.0538 0.788218,-0.10547 1.575982,-0.20964 2.369413,-0.26619 0.860128,-0.0908 1.701052,-0.29455 2.544572,-0.47926 1.214413,-0.27247 2.395427,-0.67036 3.549882,-1.13225 1.238878,-0.49602 2.329294,-1.23379 3.342062,-2.09159 0.894971,-0.79136 1.483863,-1.81399 2.073154,-2.83546 0.518364,-1.01573 0.900199,-2.08498 1.151512,-3.1957 0.222815,-0.88464 0.383072,-1.78561 0.405141,-2.69862 -0.02867,-0.94066 -0.419967,-1.8029 -0.823816,-2.63477 -0.678846,-1.3575 -1.47994,-2.64468 -2.313758,-3.91039 -0.820522,-1.19275 -1.851946,-2.21446 -3.031214,-3.04618 -1.823361,-1.25676 -3.784677,-2.1619 -5.802666,-3.01784 -1.50419,-0.72673 -3.124722,-1.09748 -4.758776,-1.38632 -2.763078,-0.33094 -5.536793,0.006 -8.284499,0.31271 -1.898146,0.21965 -3.779344,0.5807 -5.618116,1.10095 -0.993309,0.31063 -1.955203,0.71133 -2.891567,1.16428 -0.296188,0.1536 -0.475922,0.42499 -0.642455,0.70142 -0.119146,0.10965 -0.243155,0.20674 -0.343598,0.3346 0,0 2.621833,1.57935 2.621833,1.57935 v 0 c 0.119005,-0.12902 0.269345,-0.22654 0.369496,-0.37361 0.140441,-0.23111 0.260917,-0.45495 0.520514,-0.57681 0.895229,-0.47425 1.834656,-0.85351 2.800818,-1.15768 1.79648,-0.52695 3.641025,-0.88105 5.495678,-1.12829 2.747039,-0.32998 5.529122,-0.62427 8.285438,-0.20611 1.640809,0.31625 3.253174,0.74721 4.766423,1.47434 0.606186,0.26194 1.211515,0.52531 1.808419,0.8081 0.155513,0.0736 0.310518,0.1485 0.46397,0.22641 0.161227,0.0818 0.634731,0.34632 0.479951,0.25278 -0.673049,-0.40673 -1.356926,-0.79515 -2.035388,-1.19273 1.219115,0.77049 2.256832,1.79256 3.113173,2.95351 0.830729,1.24271 1.619152,2.50991 2.277707,3.85474 0.404219,0.78313 0.779001,1.6097 0.864971,2.49716 0.0092,0.897 -0.150854,1.78275 -0.35445,2.65412 -0.232024,1.08407 -0.597022,2.13152 -1.1074,3.1175 -0.558866,0.99872 -1.141728,1.98342 -2.009107,2.75108 -0.991556,0.83356 -2.063481,1.54785 -3.278555,2.01723 -1.153829,0.44376 -2.333849,0.82072 -3.544555,1.07591 -0.846824,0.17083 -1.691334,0.36536 -2.555445,0.42648 -0.781303,0.0767 -1.557124,0.1955 -2.33723,0.28226 -0.998338,0.0658 -1.996379,0.10273 -2.995765,0.0238 -1.519224,-0.0883 -3.034577,-0.22767 -4.549457,-0.37142 -1.512965,-0.12208 -3.024891,-0.25641 -4.535258,-0.40305 0,0 2.462098,1.79356 2.462098,1.79356 z" /><path
       style="opacity:1;fill:#000000;stroke:#2b0000;stroke-width:0.0203841;stroke-linecap:square;stroke-linejoin:bevel;stroke-dasharray:none;stroke-opacity:0.989637"
       id="path1540"
       d="m 80.726582,111.63465 c 0.455207,-1.08578 0.822636,-2.20434 1.206835,-3.31629 0.326552,-0.91328 0.501439,-1.86743 0.683065,-2.81712 0.164555,-0.98834 0.282869,-1.98278 0.417391,-2.97525 0.168286,-0.92605 0.191961,-1.85041 0.119169,-2.785973 -0.121383,-1.282191 -0.274813,-2.560584 -0.371928,-3.845001 -0.106982,-1.337964 -0.252181,-2.670128 -0.428639,-4.000463 -0.208701,-1.481647 -0.368458,-2.970148 -0.530719,-4.45762 -0.136454,-1.212799 -0.246408,-2.427361 -0.349349,-3.643492 -0.119663,-1.466142 -0.233769,-2.933486 -0.374557,-4.397792 -0.09456,-0.966052 -0.166139,-1.933236 -0.328595,-2.890819 -0.262483,-1.237628 -0.48466,-2.483348 -0.740692,-3.722261 -0.281808,-1.574659 -0.640873,-3.132697 -1.00582,-4.689523 -0.256346,-1.094098 -0.507685,-2.189233 -0.758385,-3.284627 -0.108767,-0.578037 -0.273485,-1.142963 -0.371161,-1.723116 -0.0635,-0.609427 -0.205684,-1.20568 -0.312958,-1.807861 -0.05814,-0.487747 -0.190975,-0.960993 -0.289892,-1.440923 -0.119916,-0.606582 -0.175035,-1.221896 -0.253422,-1.834314 -0.09562,-0.796349 -0.233639,-1.58522 -0.389984,-2.371542 -0.103015,-0.579472 -0.199168,-1.158715 -0.316423,-1.735492 -0.0786,-0.515031 -0.207736,-1.020373 -0.326207,-1.527153 -0.141602,-0.6475 -0.387307,-1.256862 -0.676556,-1.850366 -0.307048,-0.691445 -0.71612,-1.321532 -1.149712,-1.938151 -0.479506,-0.628068 -0.924325,-1.281681 -1.362401,-1.939164 -0.258147,-0.437926 -0.585005,-0.799205 -0.975709,-1.119272 -1.627105,-1.01105 -5.854694,-3.374575 -0.465112,-0.285204 0,0 -2.860764,-1.103031 -2.860764,-1.103031 v 0 c 8.43965,4.84301 -1.228673,-0.695961 0.503602,0.258083 0.404255,0.296496 0.770354,0.596385 1.032204,1.033918 0.432865,0.670996 0.895639,1.325537 1.380197,1.959814 0.43277,0.598691 0.848846,1.210013 1.143941,1.891074 0.31703,0.558589 0.547882,1.152275 0.703638,1.775578 0.111278,0.504223 0.242795,1.005485 0.325989,1.514663 0.102513,0.585141 0.246847,1.162149 0.336792,1.750214 0.162646,0.778906 0.307428,1.560646 0.392029,2.352422 0.09548,0.608031 0.1246,1.224855 0.216931,1.833495 0.08912,0.487784 0.260977,0.956415 0.320849,1.449451 0.101448,0.597533 0.242443,1.189968 0.295824,1.794297 0.08862,0.595995 0.269134,1.168041 0.392016,1.756835 0.257967,1.108875 0.555065,2.208374 0.819089,3.315876 0.371866,1.551076 0.724326,3.107252 1.005971,4.677697 0.235112,1.22878 0.451163,2.460954 0.685702,3.689719 0.184111,0.954217 0.263913,1.922127 0.373437,2.886976 0.157709,1.464311 0.292569,2.932763 0.40116,4.401317 0.0725,1.217587 0.151441,2.432671 0.319402,3.641815 0.17288,1.490197 0.381671,2.97604 0.538891,4.468253 0.175778,1.324252 0.319422,2.65083 0.428453,3.982542 0.103885,1.279874 0.245303,2.555666 0.348693,3.835469 0.08383,0.912173 0.06192,1.818852 -0.09654,2.723372 -0.134618,0.98828 -0.228689,1.98205 -0.404867,2.9648 -0.172286,0.93848 -0.365988,1.87493 -0.653576,2.78576 -0.35806,1.09629 -0.688392,2.21235 -1.233337,3.234 0,0 2.636039,1.52438 2.636039,1.52438 z" /><path
       style="opacity:1;fill:#000000;stroke:#2b0000;stroke-width:0.0203841;stroke-linecap:square;stroke-linejoin:bevel;stroke-dasharray:none;stroke-opacity:0.989637"
       id="path1542"
       d="m 78.474998,109.49428 c -0.634617,0.40634 -1.250163,0.84129 -1.899058,1.22505 -0.482495,0.31275 -1.022164,0.52818 -1.569705,0.69588 -0.341205,0.0637 -0.657254,0.15673 -0.976922,0.2885 -0.24109,0.0406 -0.460748,0.13447 -0.698586,0.19024 -0.620249,0.0891 -1.249955,0.0867 -1.875233,0.0963 -1.093029,-0.0438 -2.174229,0.11142 -3.256405,0.2378 -0.824772,0.0822 -1.649353,0.13033 -2.47167,0.23121 -0.736032,0.0863 -1.466188,0.21151 -2.203936,0.28746 -0.294551,0.0268 -0.153462,0.0157 -0.423205,0.0343 0,0 2.4785,1.77121 2.4785,1.77121 v 0 c 0.265508,-0.0303 0.127598,-0.0134 0.413658,-0.051 0.730376,-0.098 1.457519,-0.22102 2.190737,-0.29606 0.816213,-0.0898 1.634795,-0.15191 2.450416,-0.24818 1.078535,-0.13599 2.157324,-0.24422 3.246418,-0.20531 0.654322,-0.007 1.320251,0.0184 1.963028,-0.12417 0.243712,-0.0701 0.491838,-0.12521 0.727624,-0.21965 0.306703,-0.12533 0.632076,-0.17721 0.945323,-0.28417 0.555588,-0.19686 1.096891,-0.43493 1.58796,-0.76574 0.641551,-0.39944 1.26031,-0.83566 1.922441,-1.20072 0,0 -2.551385,-1.66291 -2.551385,-1.66291 z" /><path
       style="opacity:1;fill:#000000;stroke:#2b0000;stroke-width:0.0203841;stroke-linecap:square;stroke-linejoin:bevel;stroke-dasharray:none;stroke-opacity:0.989637"
       id="path1544"
       d="m 86.222918,113.89401 c 0.769321,-0.15848 1.54138,-0.2676 2.293531,-0.50085 0.845005,-0.24508 1.534322,-0.78312 2.192771,-1.34491 0.474381,-0.36595 0.926571,-0.75746 1.402898,-1.12063 0.296272,-0.20835 0.570877,-0.44383 0.873744,-0.64249 0.288669,-0.2075 0.522191,-0.4891 0.728656,-0.7768 0.458371,-0.89363 0.575302,-1.93423 0.733987,-2.91476 0.248363,-1.53664 0.336432,-3.09082 0.315019,-4.64546 -0.02129,-1.29167 -0.154247,-2.577863 -0.230933,-3.866946 -0.117797,-1.008698 -0.160861,-2.023999 -0.255069,-3.034496 -0.106902,-0.883571 -0.163842,-1.771412 -0.256311,-2.656445 -0.10975,-1.111551 -0.236288,-2.221542 -0.368071,-3.330732 -0.142325,-1.230073 -0.377852,-2.445302 -0.577871,-3.666338 -0.116829,-0.864348 -0.272142,-1.722598 -0.365865,-2.589994 -0.05272,-0.774987 -0.126508,-1.548642 -0.217727,-2.320072 -0.121812,-0.948431 -0.330751,-1.883481 -0.522758,-2.819634 -0.250786,-1.00529 -0.445017,-2.022529 -0.634485,-3.040685 -0.235989,-1.101039 -0.477082,-2.201104 -0.682841,-3.308305 -0.1587,-0.743075 -0.310761,-1.487038 -0.394174,-2.242792 -0.0049,-0.06559 -0.05961,-0.742529 -0.03225,-0.741871 0.02564,6.12e-4 0.0382,0.03432 0.0573,0.05148 0.417148,-0.104355 0.821162,-0.251162 1.236841,-0.361591 0.384673,-0.12821 0.701084,-0.376357 1.019749,-0.620755 0.482605,-0.328524 1.00896,-0.590429 1.547288,-0.813825 0.548308,-0.214215 0.992007,-0.585562 1.402606,-0.997042 0.483631,-0.509945 0.965757,-1.021195 1.355868,-1.608123 0.321243,-0.470631 0.556651,-0.989106 0.70553,-1.537984 0.179597,-0.675028 0.256894,-1.371035 0.381648,-2.057244 0.09541,-0.549579 0.154863,-1.104586 0.190928,-1.661027 0.05763,-0.487678 -0.09907,-0.95956 -0.237816,-1.420686 -0.185402,-0.58693 -0.388915,-1.167885 -0.582377,-1.752177 -0.237225,-0.719709 -0.490616,-1.430686 -0.806429,-2.11977 -0.274118,-0.627719 -0.702096,-1.125076 -1.233514,-1.544183 -1.268057,-0.88735 -2.587505,-1.769116 -4.096859,-2.142726 -0.256557,-0.05648 -0.135233,-0.03151 -0.363751,-0.076 0,0 2.429994,1.847731 2.429994,1.847731 v 0 c 0.213051,0.04764 0.09967,0.02062 0.339804,0.08249 0.25536,0.07889 0.508176,0.160984 0.750963,0.274575 0.0887,0.0415 0.345202,0.184969 0.260921,0.135061 -2.87295,-1.701253 -3.09494,-1.847505 -2.137253,-1.23532 0.558337,0.356143 1.017956,0.803729 1.309025,1.40935 0.332927,0.67025 0.586797,1.369689 0.815343,2.081635 0.191289,0.582529 0.387646,1.162715 0.572765,1.746837 0.149741,0.421701 0.302844,0.864438 0.276106,1.315243 -0.01871,0.548333 -0.0586,1.096277 -0.152904,1.637427 -0.118308,0.678296 -0.190484,1.366698 -0.377855,2.030601 -0.13412,0.517979 -0.355509,1.009551 -0.650994,1.456071 -0.373636,0.572048 -0.844402,1.067297 -1.326063,1.549213 -0.398839,0.374855 -0.822078,0.71106 -1.341081,0.905838 -0.551646,0.246921 -1.100049,0.515415 -1.594743,0.86542 -0.303338,0.214463 -0.605247,0.429433 -0.969941,0.524061 -0.423919,0.131197 -0.84965,0.257951 -1.269832,0.399145 -0.06783,0.05836 -0.147507,0.105233 -0.203527,0.175073 -0.125711,0.156732 0.0271,0.669063 0.01077,0.854343 0.08558,0.771512 0.244914,1.531031 0.427933,2.284906 0.210355,1.104564 0.43469,2.206909 0.676512,3.304772 0.190831,1.018036 0.378328,2.03731 0.624461,3.043633 0.201213,0.926502 0.400623,1.856081 0.529407,2.795692 0.10496,0.764875 0.148671,1.536741 0.205431,2.30639 0.08969,0.881561 0.275535,1.74744 0.397296,2.624662 0.197314,1.217939 0.447278,2.426572 0.584905,3.654066 0.12227,1.105465 0.254617,2.210038 0.352095,3.317918 0.0845,0.884814 0.140878,1.77189 0.248142,2.654335 0.119659,1.007202 0.151429,2.023669 0.274415,3.031023 0.0947,1.290237 0.237826,2.578 0.274072,3.871682 0.02563,1.53786 -0.03164,3.07524 -0.295653,4.59439 -0.164991,0.92977 -0.282638,1.90894 -0.748419,2.74647 -0.192533,0.25706 -0.406486,0.50898 -0.677195,0.68563 -0.299224,0.20959 -0.578216,0.44462 -0.867158,0.66814 -0.474911,0.36845 -0.929382,0.762 -1.392503,1.14514 -0.632501,0.53879 -1.302474,1.03065 -2.120422,1.24235 -0.764767,0.21685 -1.55136,0.30781 -2.327547,0.47394 0,0 2.513466,1.72593 2.513467,1.72593 z" /><path
       style="opacity:1;fill:#000000;stroke:#2b0000;stroke-width:0.0229144;stroke-linecap:square;stroke-linejoin:bevel;stroke-dasharray:none;stroke-opacity:0.989637"
       id="path1546"
       d="m 78.963995,55.104813 c -0.161405,1.232087 -0.301288,2.46649 -0.242657,3.710803 0.06653,1.273782 0.333811,2.520909 0.534855,3.775349 0.09436,0.518282 0.10052,1.051833 0.246457,1.55849 0.03133,0.100466 0.04406,0.196014 0.143505,0.2566 2.662293,1.622061 2.253652,1.975133 4.248396,1.752935 1.130328,-0.175236 2.223732,-0.542289 3.304347,-0.926014 1.044085,-0.412025 2.074767,-0.858032 3.100934,-1.317279 0.791859,-0.319425 1.397758,-0.879856 1.974138,-1.519744 0.583499,-0.619452 0.808876,-1.374088 0.919012,-2.218913 0.07891,-0.880392 0.09644,-1.762584 -0.01735,-2.639012 -0.115638,-0.855565 -0.46255,-1.539242 -1.090252,-2.078376 -2.415535,-1.725733 -3.13132,-1.969949 -5.45,-2.513861 -0.955975,-0.203158 -1.944489,-0.159717 -2.907991,-0.04284 -1.005476,0.08765 -1.928815,0.534603 -2.824745,0.995879 -0.674675,0.388866 -1.3679,0.739756 -2.00834,1.191638 -0.04511,0.03594 -0.09022,0.07188 -0.135332,0.107821 0,0 2.817197,1.890216 2.817197,1.890216 v 0 c 0.03819,-0.03245 0.07639,-0.06489 0.114575,-0.09735 0.610824,-0.457465 1.284453,-0.801828 1.943048,-1.172707 0.877979,-0.440087 1.777821,-0.837337 2.760819,-0.896005 0.952673,-0.08447 1.915711,-0.108655 2.851645,0.13624 0.448751,0.107402 0.901687,0.208062 1.344036,0.343144 1.170103,0.357324 3.005393,1.495499 -1.577994,-1.223019 0.711671,0.415467 1.054177,0.974116 1.218174,1.820548 0.127882,0.844842 0.120886,1.695509 0.04991,2.54768 -0.0883,0.773962 -0.271095,1.460889 -0.80683,2.029673 -0.553055,0.602162 -1.161926,1.0899 -1.903706,1.404714 -1.006481,0.477021 -2.027256,0.921255 -3.069422,1.303068 -1.062567,0.374226 -2.144265,0.730817 -3.262435,0.849501 -0.375422,0.01153 -0.542685,0.04026 -0.897346,-0.02625 -0.09091,-0.01705 -0.34505,-0.131915 -0.266385,-0.08053 2.780602,1.816576 3.667493,1.909402 2.460358,1.607315 -0.244671,-0.465405 -0.22769,-1.007113 -0.334588,-1.517814 -0.22477,-1.242698 -0.498594,-2.48223 -0.576684,-3.748096 -0.06239,-1.211965 0.0225,-2.420979 0.258936,-3.610665 0,0 -2.918278,-1.653151 -2.918278,-1.653151 z" /><path
       style="opacity:1;fill:#000000;stroke:#2b0000;stroke-width:0.0203841;stroke-linecap:square;stroke-linejoin:bevel;stroke-dasharray:none;stroke-opacity:0.989637"
       id="path1548"
       d="m 90.186353,67.262618 c 0.205445,1.152544 0.426445,2.301873 0.640684,3.452767 0.305302,1.570685 0.556594,3.149959 0.80686,4.730006 0.157408,1.101166 0.380484,2.191451 0.595048,3.282466 0.1751,1.122868 0.404842,2.234778 0.621536,3.350003 0.206379,1.141763 0.475522,2.266693 0.797196,3.380745 0.308516,1.081378 0.531493,2.184008 0.790779,3.277602 0.184232,0.933753 0.366462,1.564732 1.008322,2.284252 1.019331,0.909095 0.372778,0.3597 3.06341,1.841891 0.212739,0.117193 0.614415,0.117364 0.835646,0.02633 0.09759,-0.04015 0.177371,-0.114557 0.266054,-0.171835 0.787002,-0.749909 0.775112,-1.928848 0.850862,-2.940836 0.083,-1.463049 -0.11534,-2.917656 -0.26834,-4.368829 -0.221658,-1.820878 -0.199213,-3.651607 -0.087,-5.478157 0.10464,-1.663138 0.20376,-3.326545 0.33486,-4.987886 0.12848,-1.32967 0.22868,-2.661392 0.28209,-3.996184 0.008,-1.252433 0.024,-2.503085 0.0726,-3.754533 0.0495,-1.322337 0.10218,-2.64454 0.14707,-3.967053 -0.004,-0.548562 0.0351,-1.088679 0.11736,-1.629735 0.0597,-0.444598 0.18196,-0.876358 0.25179,-1.319521 0.0514,-0.331776 0.12422,-0.664325 0.22586,-0.984617 0.12849,-0.330174 0.22627,-0.666161 0.37036,-0.990763 0.21982,-0.608642 0.51324,-1.184054 0.82676,-1.748423 0.21054,-0.39384 0.42438,-0.823626 0.86433,-0.983303 0.41326,-0.119273 0.77734,-0.004 1.16266,0.151693 1.15412,0.727742 -0.54955,-0.353478 -1.94213,-1.072742 -0.13439,-0.06942 0.2419,0.182743 0.35271,0.285861 0.40174,0.373872 0.67315,0.809459 0.94502,1.280397 0.6703,1.516099 0.8822,3.185232 1.17281,4.805149 0.23977,1.418845 0.47447,2.838781 0.74318,4.252472 0.31378,1.514055 0.57156,3.039618 0.81771,4.566023 0.22318,1.554539 0.4403,3.110338 0.61546,4.671143 0.16125,1.658452 0.17418,3.325877 0.19673,4.990519 0.0567,1.64783 0.12451,3.294971 0.1582,4.943513 0.0346,1.525808 0.0404,3.049684 -0.003,4.575223 -0.046,1.545973 -0.18245,3.08726 -0.35499,4.623551 -0.0967,1.361052 -0.34566,2.701786 -0.61128,4.037668 -0.22537,1.033641 -0.45102,2.0681 -0.76892,3.077715 -0.2456,1.0058 -0.76287,1.88098 -1.30749,2.74691 -0.80173,1.1577 -1.78066,2.17783 -2.69831,3.24229 -0.47287,0.58029 -0.96535,1.13975 -1.49116,1.67231 -0.41717,0.43594 -0.966238,0.71155 -1.478222,1.01835 -0.666595,0.40329 -1.416429,0.61 -2.17204,0.76736 -0.606312,0.15408 -1.199435,0.13262 -1.808395,0.0212 -1.163404,-0.2216 -2.295831,-0.58054 -3.414552,-0.96449 -0.850667,-0.2826 -1.700459,-0.59724 -2.481838,-1.04223 5.068435,3.11215 1.014644,0.29945 -0.822135,-0.44032 -0.03506,-0.0135 -0.0701,-0.0271 -0.105153,-0.0408 0,0 2.401224,1.89894 2.401224,1.89894 v 0 c 0.03251,0.0146 0.06503,0.0293 0.09755,0.0439 0.216526,0.10679 0.01601,0.005 0.241628,0.13024 0.04076,0.0227 0.163835,0.0892 0.123548,0.0657 -0.830299,-0.48475 -1.660723,-0.96929 -2.493678,-1.44943 -0.04732,-0.0272 0.09099,0.0605 0.136485,0.0906 0.927772,0.53456 1.855547,1.06912 2.783321,1.60368 0.791376,0.38288 1.612907,0.69587 2.451949,0.95742 1.147972,0.37789 2.302829,0.75244 3.495633,0.96137 0.633415,0.0777 1.246738,0.0608 1.865151,-0.11779 0.779004,-0.18577 1.545674,-0.41716 2.233844,-0.84066 0.53738,-0.31686 1.10173,-0.61296 1.52702,-1.08129 0.5222,-0.54291 1.00034,-1.1212 1.46317,-1.71565 0.89635,-1.1001 1.86547,-2.14012 2.71243,-3.27946 0.56761,-0.88308 1.11111,-1.77052 1.3716,-2.80101 0.32017,-1.02491 0.52,-2.08042 0.74256,-3.129885 0.25704,-1.34388 0.54624,-2.685586 0.63329,-4.054861 0.1586,-1.550901 0.27106,-3.106965 0.32031,-4.665451 0.0637,-1.524354 0.10667,-3.049903 0.0422,-4.575259 -0.0496,-1.650858 -0.12507,-3.300668 -0.18385,-4.951192 -0.008,-1.669898 -0.0302,-3.34225 -0.16806,-5.007237 -0.15007,-1.571054 -0.40834,-3.13075 -0.6236,-4.693848 -0.24633,-1.519471 -0.46833,-3.043853 -0.76983,-4.553503 -0.28628,-1.420925 -0.54633,-2.847203 -0.79899,-4.27448 -0.2927,-1.632346 -0.49527,-3.300289 -1.07146,-4.863467 -0.2286,-0.439297 -0.27528,-0.567331 -0.56437,-0.970338 -0.92684,-1.292077 -2.50834,-1.928715 -3.90082,-2.607528 -0.44905,-0.125818 -0.88034,-0.177085 -1.31578,0.0293 -0.44959,0.263654 -0.70865,0.700058 -0.94157,1.157457 -0.305673,0.574873 -0.617237,1.147698 -0.846066,1.759251 -0.159959,0.329376 -0.280632,0.666679 -0.401184,1.011251 -0.11903,0.332404 -0.187318,0.691018 -0.243746,1.038103 -0.06034,0.444828 -0.182161,0.875288 -0.249223,1.31814 -0.08882,0.562149 -0.131115,1.116231 -0.09466,1.687527 -0.0063,1.325538 -0.0336,2.651351 -0.112604,3.974757 -0.0745,1.248785 -0.07148,2.49748 -0.09579,3.747998 -0.03475,1.338153 -0.10869,2.674738 -0.228254,4.008131 -0.137615,1.662523 -0.242124,3.328108 -0.339284,4.993442 -0.09696,1.839416 -0.127676,3.682937 0.06402,5.518411 0.137296,1.433361 0.318804,2.86934 0.272833,4.312215 -0.05869,0.733336 -0.06006,1.865844 -0.562533,2.469494 -0.05651,0.06791 -0.135277,0.113563 -0.202914,0.170342 -0.247708,0.0909 -0.430176,0.100384 -0.688096,0.01647 -0.08309,-0.02703 -0.315415,-0.14929 -0.240815,-0.103705 3.153743,1.927106 3.002141,1.832018 2.085265,1.215598 -0.177618,-0.162889 -0.373092,-0.327308 -0.515451,-0.524314 -0.343767,-0.475729 -0.448357,-1.065236 -0.584449,-1.622176 -0.269543,-1.097747 -0.50699,-2.203144 -0.798721,-3.295279 -0.314554,-1.110512 -0.607724,-2.224336 -0.81692,-3.360701 -0.210392,-1.113238 -0.429814,-2.224335 -0.604934,-3.343699 -0.216517,-1.094946 -0.435588,-2.189851 -0.630544,-3.288732 -0.263405,-1.576982 -0.528437,-3.153673 -0.794658,-4.730161 -0.202125,-1.138909 -0.442311,-2.271775 -0.577337,-3.42168 0,0 -2.723782,-1.330206 -2.723782,-1.330206 z" /><path
       style="opacity:1;fill:#000000;stroke:#2b0000;stroke-width:0.0203841;stroke-linecap:square;stroke-linejoin:bevel;stroke-dasharray:none;stroke-opacity:0.989637"
       id="path1550"
       d="m 104.26847,108.19168 c 1.40224,1.84278 2.94378,2.47852 5.03011,3.68585 0.67525,0.30695 1.36827,0.54241 2.08747,0.22737 0.15896,-0.0697 0.30252,-0.17028 0.45377,-0.25541 1.03027,-0.78277 1.86599,-1.78312 2.53274,-2.88625 0.67287,-1.20716 1.09015,-2.51018 1.3725,-3.8564 0.37036,-1.68383 0.50521,-3.41077 0.54023,-5.131362 -0.003,-1.798269 -0.13149,-3.593541 -0.28694,-5.38408 -0.16452,-1.525328 -0.32153,-3.051323 -0.49999,-4.575098 -0.26226,-1.988493 -0.45337,-3.985261 -0.70369,-5.975151 -0.2499,-2.028678 -0.45093,-4.061035 -0.56621,-6.101853 -0.0869,-1.291769 -0.0782,-2.584165 0.11639,-3.864812 0.23792,-1.128567 0.77829,-2.15505 1.39052,-3.120373 0.43006,-0.647044 1.06056,-1.047651 1.78724,-1.278603 0.27377,0.0127 0.33668,-8.28e-4 0.6097,0.08422 0.10223,0.03186 0.39029,0.174829 0.29733,0.12162 -0.74581,-0.426904 -1.48079,-0.877598 -2.258,-1.24391 -0.14768,-0.06961 0.247,0.21651 0.34906,0.344183 0.14415,0.180326 0.2573,0.383509 0.38596,0.57526 1.05758,1.917224 1.93113,3.935636 2.80898,5.940995 0.6529,1.623815 1.37742,3.225119 1.92486,4.889874 0.41373,1.258138 0.45673,1.562716 0.77403,2.884141 0.62789,2.912143 1.00973,5.873348 1.15938,8.84769 0.0969,2.031171 -0.005,4.061869 -0.34629,6.065201 -0.23356,1.08346 -0.56468,2.141698 -0.84417,3.213288 -0.16507,0.69399 -0.35237,1.38218 -0.46822,2.08667 -0.0546,0.38244 -0.0811,0.76842 -0.0892,1.15449 -0.0183,0.26381 -0.0292,0.45331 0.20276,0.6149 1.2156,0.96458 2.65702,1.5088 4.0048,2.22432 0.56892,0.24458 1.16461,0.40446 1.77546,0.49716 0.85025,0.0358 1.57253,-0.18902 2.35592,-0.48038 0.75952,-0.28451 1.31209,-0.84309 1.69694,-1.54183 0.34631,-0.60736 0.47679,-1.28204 0.55292,-1.96776 0.0547,-0.76526 0.0444,-1.53371 0.042,-2.30046 0.0255,-0.87043 -0.0287,-1.736334 -0.0973,-2.603211 -0.0993,-0.996262 -0.0755,-1.99426 -0.0296,-2.99236 0.0865,-0.974368 0.20586,-1.945142 0.2747,-2.921122 0.0231,-0.858468 0.0903,-1.711039 0.17822,-2.565123 0.10014,-1.054299 0.29483,-2.09517 0.39569,-3.149426 0.10547,-0.708545 0.19956,-1.417314 0.25654,-2.131573 0.0178,-0.484521 0.12542,-0.958624 0.18758,-1.438217 0.0416,-0.729796 0.10993,-1.458392 0.16074,-2.188047 0.0853,-0.852556 0.19034,-1.702411 0.25323,-2.557123 0.0136,-0.788989 -0.1107,-1.571375 -0.20974,-2.351776 -0.10688,-0.882243 -0.13664,-1.77136 -0.14863,-2.659237 -0.005,-0.553631 6.2e-4,-1.107274 0.004,-1.660895 -0.009,-0.539578 -0.082,-1.08147 -0.16532,-1.614814 -0.11883,-0.748604 -0.20816,-1.501633 -0.30797,-2.253134 -0.0781,-0.505829 -0.0679,-1.022332 -0.21615,-1.514928 -0.0199,-0.04731 -0.0397,-0.09462 -0.0597,-0.141935 0,0 -2.78299,-1.255874 -2.78299,-1.255874 v 0 c 0.0253,0.03906 0.0507,0.07811 0.076,0.117169 0.24313,0.447802 0.19196,0.971783 0.27615,1.461838 0.11779,0.749503 0.20174,1.502099 0.29863,2.254164 0.0869,0.51652 0.15111,1.041182 0.17429,1.564097 0.002,0.560288 0.007,1.120587 0.0209,1.680715 0.0235,0.897494 0.0484,1.795331 0.13807,2.689253 0.0942,0.7641 0.20865,1.524789 0.22563,2.296119 -0.046,0.857392 -0.13412,1.710983 -0.23668,2.563345 -0.0516,0.719785 -0.13992,1.435369 -0.19213,2.154843 -0.0538,0.487639 -0.16551,0.968451 -0.17997,1.45949 -0.0422,0.716598 -0.13068,1.427445 -0.23085,2.138079 -0.0883,1.055901 -0.25826,2.10102 -0.36963,3.154381 -0.10968,0.853201 -0.23103,1.700493 -0.21509,2.563638 -0.054,0.982103 -0.15322,1.959853 -0.25083,2.938404 -0.0509,1.006691 -0.11642,2.010557 -0.003,3.016716 0.0585,0.859509 0.12994,1.716368 0.0978,2.579084 -4.1e-4,0.75544 0.007,1.51187 -0.0415,2.26614 -0.0581,0.64808 -0.16636,1.28798 -0.49135,1.86273 -0.35301,0.6463 -0.86643,1.12141 -1.5725,1.36405 -0.73222,0.26232 -1.49369,0.45613 -2.27733,0.34189 -0.59532,-0.1219 -1.18098,-0.29577 -1.72542,-0.57115 -0.26783,-0.13061 -0.53659,-0.25801 -0.80123,-0.39508 -0.0745,-0.0386 -0.29545,-0.1593 -0.22308,-0.11677 1.7247,1.01389 3.25449,1.88153 2.22489,1.29703 -0.23645,-0.14505 -0.3444,0.011 -0.32707,-0.33483 -2.1e-4,-0.37648 0.004,-0.75361 0.0495,-1.12791 0.0931,-0.70196 0.26789,-1.38604 0.42221,-2.07623 0.27116,-1.08647 0.59607,-2.15994 0.80911,-3.260634 0.33402,-2.037965 0.37275,-4.104905 0.28926,-6.166615 -0.17252,-2.9942 -0.56255,-5.973497 -1.17579,-8.910118 -0.28114,-1.282183 -0.33501,-1.66891 -0.71836,-2.893763 -0.52472,-1.676587 -1.28902,-3.265004 -1.91033,-4.905245 -0.86375,-1.993906 -1.72171,-3.99555 -2.70073,-5.935311 -0.11123,-0.203231 -0.20966,-0.414047 -0.33368,-0.6097 -0.71789,-1.13257 -2.02118,-1.450454 -3.2332,-2.119602 -0.1304,-0.07199 -0.55138,-0.108486 -0.68667,-0.10247 -0.11461,0.0051 -0.2265,0.03668 -0.33977,0.05502 -0.75804,0.304937 -1.41795,0.766663 -1.86348,1.468837 -0.61092,1.009798 -1.17318,2.072275 -1.4399,3.230954 -0.20049,1.306255 -0.21738,2.626802 -0.10285,3.943688 0.14548,2.050185 0.36373,4.092907 0.59525,6.134752 0.2288,1.983736 0.44514,3.968635 0.66639,5.953255 0.15687,1.523739 0.32105,3.046683 0.49927,4.568077 0.16489,1.783042 0.33067,3.571063 0.31631,5.363565 -0.0264,1.70033 -0.15709,3.40471 -0.54335,5.06504 -0.28894,1.30707 -0.66402,2.59162 -1.32911,3.76375 -0.6666,1.04252 -1.42638,2.04683 -2.47489,2.73227 -0.14084,0.0645 -0.27501,0.14621 -0.42251,0.19337 -0.67377,0.21546 -1.34614,-0.11357 -1.94199,-0.39776 4.73272,2.79386 2.17048,1.32987 1.60778,0.9147 -0.57968,-0.42773 -1.09774,-0.93944 -1.52771,-1.51776 0,0 -2.78698,-1.2042 -2.78698,-1.2042 z" /><path
       style="opacity:1;fill:#000000;stroke:#2b0000;stroke-width:0.0203841;stroke-linecap:square;stroke-linejoin:bevel;stroke-dasharray:none;stroke-opacity:0.989637"
       id="path1562"
       d="m 133.74571,105.17761 c 0.88964,-0.0355 1.75663,0.2366 2.61173,0.45229 1.32111,0.43284 2.68987,0.64826 4.06677,0.80009 1.45319,0.15116 2.90983,0.1905 4.36525,0.0653 1.18213,-0.062 2.32241,-0.38364 3.47329,-0.63135 0.57957,-0.16474 1.20539,-0.28789 1.72451,-0.60923 0.19331,-0.13617 0.31444,-0.35288 0.42913,-0.5564 0.10114,-0.21782 0.14038,-0.41211 0.0785,-0.64619 -0.35717,-0.65515 -0.88855,-1.19989 -1.368,-1.76627 -0.67014,-0.81656 -1.33167,-1.64076 -1.95716,-2.492337 -0.72998,-1.014257 -1.46375,-2.027199 -2.25918,-2.991197 -0.4488,-0.510816 -0.91204,-1.008713 -1.37525,-1.506395 -0.45473,-0.423513 -0.90634,-0.847291 -1.33007,-1.30247 -0.61128,-0.648737 -1.16338,-1.346972 -1.67928,-2.073187 -0.57282,-0.825247 -0.92654,-1.768166 -1.19789,-2.728531 -0.23409,-0.867331 -0.31668,-1.761708 -0.35992,-2.655817 -0.0346,-0.545635 -0.005,-1.088487 0.12156,-1.620462 0.16114,-0.528667 0.33139,-1.054899 0.50955,-1.578001 0.17613,-0.515315 0.32443,-1.040805 0.50393,-1.554844 0.10806,-0.288281 0.20199,-0.581017 0.3042,-0.871265 0.12462,-0.468951 0.26063,-0.935468 0.40819,-1.397668 0.18814,-0.717078 0.46694,-1.403767 0.71131,-2.101999 0.17184,-0.463005 0.40106,-0.899919 0.59531,-1.353284 0.21721,-0.516387 0.46848,-1.016166 0.70556,-1.523335 0.37765,-0.798434 0.80594,-1.562657 1.3346,-2.26969 0.56217,-0.767869 1.19496,-1.477234 1.84302,-2.172066 0.57352,-0.602558 1.06805,-1.26754 1.52333,-1.962299 0.2673,-0.405312 0.56125,-0.793926 0.85713,-1.179093 0.10891,-0.138304 0.22914,-0.266892 0.35151,-0.393129 0,0 -2.6162,-1.592063 -2.6162,-1.592063 v 0 c -0.12102,0.139824 -0.24157,0.28009 -0.3579,0.423898 -0.29129,0.39576 -0.56198,0.808528 -0.83583,1.216203 -0.43828,0.684236 -0.9232,1.334788 -1.48292,1.925213 -0.65277,0.703093 -1.28591,1.425748 -1.84927,2.203864 -0.54842,0.716241 -0.99248,1.496566 -1.38918,2.306942 -0.25167,0.504995 -0.51249,1.004474 -0.73054,1.525481 -0.19573,0.461638 -0.43265,0.905022 -0.59248,1.381925 -0.22833,0.704245 -0.50937,1.390715 -0.71789,2.101411 -0.15284,0.455758 -0.29835,0.91511 -0.42756,1.377931 -0.10496,0.290998 -0.19625,0.584936 -0.29476,0.878694 -0.17981,0.514737 -0.30151,1.05037 -0.49238,1.562258 -0.1858,0.529033 -0.3495,1.065242 -0.53232,1.595401 -0.14837,0.559792 -0.18051,1.137861 -0.13301,1.714654 0.0389,0.915985 0.12111,1.829864 0.34246,2.72243 0.0334,0.123604 0.22525,0.84246 0.26646,0.96188 0.22261,0.645037 0.54548,1.265777 0.87873,1.857579 0.51804,0.730322 1.04841,1.452232 1.66209,2.106277 0.41012,0.456526 0.82357,0.907307 1.29468,1.302762 0.50842,0.470606 0.94267,1.018777 1.43641,1.505316 0.82331,0.938952 1.55145,1.95878 2.27735,2.974076 0.61423,0.855069 1.25976,1.687517 1.92725,2.501317 0.45281,0.55079 0.94123,1.0776 1.34854,1.66287 0.13024,0.17803 0.11833,0.17035 0.0427,0.39303 -0.0849,0.1581 -0.17392,0.32604 -0.32919,0.42218 -0.51002,0.26676 -1.07076,0.42405 -1.62542,0.56632 -1.13171,0.26501 -2.2625,0.55275 -3.42912,0.6109 -1.43771,0.10409 -2.87754,0.0697 -4.31044,-0.0969 -1.37659,-0.1721 -2.73603,-0.43513 -4.06365,-0.8453 -0.89838,-0.22414 -1.81257,-0.5048 -2.74859,-0.40838 0,0 2.49049,1.76066 2.49049,1.76066 z" /><path
       style="opacity:1;fill:#000000;stroke:#2b0000;stroke-width:0.0203841;stroke-linecap:square;stroke-linejoin:bevel;stroke-dasharray:none;stroke-opacity:0.989637"
       id="path1564"
       d="m 151.9686,102.78262 c -0.0402,-1.20035 -0.0403,-2.40181 -0.0441,-3.602736 0.0303,-1.345475 0.1214,-2.687975 0.28382,-4.023742 0.0851,-1.074976 0.34173,-2.108401 0.7373,-3.107125 0.41638,-0.895398 0.89804,-1.408612 1.7615,-1.876955 0.32026,-0.137995 0.63481,-0.330591 0.99795,-0.291813 0.23576,0.02518 0.29868,0.09335 0.5002,0.212995 -0.77521,-0.434928 -1.55041,-0.869858 -2.32563,-1.304786 0.73961,0.589572 1.13269,1.455978 1.51161,2.298817 0.50249,1.208528 0.93972,2.447467 1.30363,3.705135 0.29001,1.053338 0.58985,2.103894 0.88222,3.156537 0.29851,1.016192 0.54283,2.047101 0.8093,3.071883 0.1105,0.38323 0.17948,0.77659 0.27178,1.16409 0.0103,0.0433 0.0925,0.39963 0.15739,0.44171 0.89242,0.57846 1.82482,1.0924 2.73723,1.63859 0.58071,-0.10264 1.16569,-0.23229 1.72872,-0.41102 0.0764,-0.0261 0.15302,-0.0523 0.22953,-0.0784 0,0 -2.51297,-1.70808 -2.51297,-1.70808 v 0 c -0.0726,0.0243 -0.14513,0.0487 -0.2177,0.073 -0.36772,0.10232 -1.02222,0.32471 -1.39066,0.27991 -0.0735,-0.009 -0.13986,-0.0484 -0.20978,-0.0727 0.81228,0.4914 1.62458,0.9828 2.43687,1.47419 -0.0491,-0.0321 -0.11267,-0.0488 -0.14728,-0.0962 -0.23551,-0.32257 -0.20735,-1.05593 -0.38525,-1.41497 -0.28147,-1.02426 -0.50752,-2.06341 -0.81832,-3.079512 -0.29275,-1.051199 -0.58519,-2.102152 -0.87193,-3.155013 -0.36688,-1.270083 -0.85363,-2.503752 -1.30175,-3.746482 -0.3635,-0.869514 -0.73053,-1.7476 -1.40393,-2.42915 -0.95272,-0.562096 -1.89309,-1.145784 -2.85816,-1.686294 -0.52803,-0.295736 -1.17136,0.0947 -1.63288,0.320909 -0.89239,0.532362 -1.43635,1.094177 -1.86863,2.049676 -0.40234,1.024969 -0.65762,2.087435 -0.74626,3.188524 -0.16782,1.34953 -0.25168,2.706258 -0.2814,4.065915 -0.004,1.185915 -0.004,2.372397 -0.0441,3.557707 0,0 2.71161,1.38531 2.71161,1.38531 z" /><path
       style="opacity:1;fill:#000000;stroke:#2b0000;stroke-width:0.0203841;stroke-linecap:square;stroke-linejoin:bevel;stroke-dasharray:none;stroke-opacity:0.989637"
       id="path1566"
       d="m 149.81069,100.43679 c -0.42382,0.74683 -0.95466,1.42366 -1.45702,2.11732 -0.34021,0.4365 -0.64945,0.91368 -1.03763,1.30896 -0.206,0.21988 -0.3927,0.45508 -0.66897,0.58547 -0.0178,0.006 -0.0356,0.013 -0.0534,0.0194 0,0 2.56196,1.68934 2.56196,1.68934 v 0 c 0.0202,-0.0127 0.0404,-0.0254 0.0606,-0.0381 0.26842,-0.18519 0.4719,-0.43466 0.69228,-0.67276 0.38456,-0.41966 0.70125,-0.89886 1.02933,-1.36309 0.49316,-0.7059 1.01888,-1.38872 1.50146,-2.10224 0,0 -2.62865,-1.5444 -2.62865,-1.5444 z" /><path
       style="opacity:1;fill:#000000;stroke:#2b0000;stroke-width:0.0203841;stroke-linecap:square;stroke-linejoin:bevel;stroke-dasharray:none;stroke-opacity:0.989637"
       id="path1568"
       d="m 144.23651,95.252443 c -0.16517,-1.212972 -0.2539,-2.436014 -0.328,-3.657697 -0.0694,-1.027064 -0.15879,-2.050775 -0.32005,-3.067512 -0.12021,-0.659136 -0.14611,-1.329495 -0.1637,-1.997704 0.005,-0.763035 -0.0862,-1.521669 -0.1433,-2.281465 -0.0339,-0.466449 -0.04,-0.934065 -0.0441,-1.401495 -0.002,-0.40454 -0.007,-0.809036 -0.0114,-1.213553 0.0158,-0.763953 -0.0645,-1.524051 -0.12275,-2.284609 -0.0504,-0.605485 -0.0667,-1.21272 -0.0721,-1.820006 0.002,-0.278872 1.7e-4,-0.557786 0.007,-0.836608 6.1e-4,-0.02214 0.002,-0.04431 0.002,-0.06645 0,0 -2.73107,-1.396482 -2.73107,-1.396482 v 0 c 4e-4,0.02285 7.6e-4,0.04571 0.002,0.06856 0.005,0.284543 0.004,0.569187 0.0139,0.853632 0.0154,0.616538 0.0352,1.233275 0.0839,1.848214 0.0664,0.750142 0.15576,1.50079 0.12042,2.255127 -0.005,0.402607 -0.0134,0.805224 -0.01,1.207879 0.009,0.477584 0.0348,0.954714 0.0634,1.431458 0.0535,0.757882 0.17023,1.51231 0.16391,2.273075 0.006,0.68 0.004,1.362664 0.12624,2.034408 0.20978,1.012328 0.32312,2.036545 0.40115,3.067357 0.0732,1.212163 0.17462,2.422581 0.22869,3.635512 0,0 2.73452,1.348353 2.73452,1.348353 z" /><ellipse
       style="opacity:1;fill:#ffffff;stroke:#2b0000;stroke-width:0.0268814;stroke-linecap:square;stroke-linejoin:bevel;stroke-dasharray:none;stroke-opacity:0.989637"
       id="path1676"
       cx="85.913353"
       cy="58.901604"
       rx="6.1924644"
       ry="5.4960351" /></g></svg>
